# xmcd CD database file
#
# Track frame offsets:
#	183
#	11748
#	23230
#	33988
#	46708
#	58560
#	72025
#	86665
#	101510
#	116278
#	130385
#	142358
#	156278
#	169625
#	181828
#	195793
#	210443
#	224883
#	238838
#	252800
#	265365
#	279370
#	293733
#
# Disc length: 4114 seconds
#
# Revision: 0
# Processed by: cddbd v1.5.1PL2 Copyright (c) Steve Scherf et al.
# Submitted via: CDex 1.51
#
DISCID=4a101017
DTITLE=Jimmie Noone - The Complete Recordings Vol.1 [CD1]
DYEAR=1991
DGENRE=Jazz
TTITLE0=Lillie Delk Christian - Lonesome And Sorry
TTITLE1=Lillie Delk Christian - Baby O' Mine
TTITLE2=Lillie Delk Christian - Baby O' Mine
TTITLE3=Lillie Delk Christian - My Blue Heaven
TTITLE4=Lillie Delk Christian - Miss Annabelle Lee
TTITLE5=Jimmie Noone's Apex Club Orchestra - I Know That You Know
TTITLE6=Jimmie Noone's Apex Club Orchestra - Sweet Sue-Just You
TTITLE7=Jimmie Noone's Apex Club Orchestra - Four Or Five Times
TTITLE8=Jimmie Noone's Apex Club Orchestra - Four Or Five Times
TTITLE9=Jimmie Noone's Apex Club Orchestra - Every Evening I Miss You
TTITLE10=Jimmie Noone's Apex Club Orchestra - Every Evening I Miss You
TTITLE11=Jimmie Noone's Apex Club Orchestra - Ready For The River
TTITLE12=Jimmie Noone's Apex Club Orchestra - Forevermore
TTITLE13=Jimmie Noone's Apex Club Orchestra - Oh, Sister! Ain't That Hot?
TTITLE14=Jimmie Noone's Apex Club Orchestra - I Ain't Got Nobody
TTITLE15=Jimmie Noone's Apex Club Orchestra - Apex Blues
TTITLE16=Jimmie Noone's Apex Club Orchestra - Apex Blues
TTITLE17=Jimmie Noone's Apex Club Orchestra - A Monday Date
TTITLE18=Jimmie Noone's Apex Club Orchestra - Blues My Naughty Sweetie Gives To Me
TTITLE19=Jimmie Noone's Apex Club Orchestra - Oh Sister! Ain't That Hot?
TTITLE20=Jimmie Noone's Apex Club Orchestra - King Joe
TTITLE21=Jimmie Noone's Apex Club Orchestra - Sweet Lorraine
TTITLE22=Jimmie Noone's Apex Club Orchestra - Sweet Lorraine
EXTD=YEAR: 1991
EXTT0=
EXTT1=
EXTT2=
EXTT3=
EXTT4=
EXTT5=
EXTT6=
EXTT7=
EXTT8=
EXTT9=
EXTT10=
EXTT11=
EXTT12=
EXTT13=
EXTT14=
EXTT15=
EXTT16=
EXTT17=
EXTT18=
EXTT19=
EXTT20=
EXTT21=
EXTT22=
PLAYORDER=
